<svg width="17" height="12" viewBox="0 0 17 12" fill="none" xmlns="http://www.w3.org/2000/svg">
<path d="M11.4545 11.8195C11.2149 12.0602 10.8376 12.0602 10.5979 11.8195C10.3663 11.587 10.3663 11.2 10.5979 10.9681L14.9414 6.60675L0.608324 6.60675C0.274204 6.60675 -2.47402e-07 6.34009 -2.62067e-07 6.00461C-2.76732e-07 5.66912 0.274204 5.3938 0.608324 5.3938L14.9414 5.39379L10.5979 1.0406C10.3663 0.799965 10.3663 0.412449 10.5979 0.180481C10.8376 -0.0601585 11.2149 -0.0601585 11.4545 0.180481L16.8263 5.57427C17.0579 5.80678 17.0579 6.19376 16.8263 6.42573L11.4545 11.8195Z" fill="#F68633"/>
</svg>
