<svg width="9" height="15" viewBox="0 0 9 15" fill="none" xmlns="http://www.w3.org/2000/svg">
<mask id="mask0" mask-type="alpha" maskUnits="userSpaceOnUse" x="0" y="0" width="9" height="11">
<path fill-rule="evenodd" clip-rule="evenodd" d="M9 5.27049V0H0V5.27049V10.541H9V5.27049Z" fill="white"/>
</mask>
<g mask="url(#mask0)">
<path fill-rule="evenodd" clip-rule="evenodd" d="M6.06522 10.541H7.82687C8.47445 10.541 9 10.0171 9 9.37171V2.53765V2.37594L8.8854 2.26158L6.73322 0.114339L6.6186 0H6.45652H1.17489C0.525968 0 0 0.525029 0 1.17259V9.3684C0 10.0158 0.524975 10.541 1.17313 10.541H2.93478C3.1509 10.541 3.32609 10.3662 3.32609 10.1506C3.32609 9.93497 3.1509 9.76018 2.93478 9.76018H1.17313C0.957683 9.76018 0.782609 9.58503 0.782609 9.3684V1.17259C0.782609 0.956173 0.958275 0.780814 1.17489 0.780814H6.45652L6.17982 0.666475L8.33199 2.81371L8.21739 2.53765V9.37171C8.21739 9.58573 8.04239 9.76018 7.82687 9.76018H6.06522C5.8491 9.76018 5.67391 9.93497 5.67391 10.1506C5.67391 10.3662 5.8491 10.541 6.06522 10.541Z" fill="#F68633"/>
</g>
<mask id="mask1" mask-type="alpha" maskUnits="userSpaceOnUse" x="6" y="0" width="3" height="4">
<path fill-rule="evenodd" clip-rule="evenodd" d="M8.99923 3.12337V0.195312L6.06445 0.195313V3.12337H8.99923Z" fill="white"/>
</mask>
<g mask="url(#mask1)">
<path fill-rule="evenodd" clip-rule="evenodd" d="M6.17905 3.00903C6.10825 2.93838 6.06445 2.84078 6.06445 2.73296V0.58572C6.06445 0.370119 6.23964 0.195312 6.45576 0.195312C6.67185 0.195312 6.84706 0.370119 6.84706 0.58572V2.34255H8.60793C8.82403 2.34255 8.99924 2.51736 8.99924 2.73296C8.99924 2.94858 8.82403 3.12337 8.60793 3.12337H6.45576C6.34769 3.12337 6.24986 3.07967 6.17905 3.00903Z" fill="#F68633"/>
</g>
<mask id="mask2" mask-type="alpha" maskUnits="userSpaceOnUse" x="1" y="6" width="7" height="9">
<path fill-rule="evenodd" clip-rule="evenodd" d="M1.95703 14.3296H7.04403V6.05176H1.95703V14.3296H1.95703Z" fill="white"/>
</mask>
<g mask="url(#mask2)">
<path fill-rule="evenodd" clip-rule="evenodd" d="M4.89173 12.9723V6.44216C4.89173 6.22666 4.71663 6.05176 4.50042 6.05176C4.28442 6.05176 4.10912 6.22666 4.10912 6.44216V12.9723L2.63 11.4417C2.47993 11.2865 2.23223 11.2821 2.07669 11.4318C1.92114 11.5815 1.91665 11.8284 2.06671 11.9838L4.21889 14.2105C4.23513 14.2263 4.24218 14.2306 4.24862 14.2359C4.26683 14.2507 4.27347 14.2575 4.28091 14.2626C4.29677 14.2726 4.30731 14.2771 4.3175 14.2825C4.32766 14.288 4.33706 14.2944 4.34763 14.2989C4.36563 14.3057 4.37698 14.3083 4.38852 14.3118C4.39908 14.3151 4.40946 14.3192 4.42002 14.3216C4.43919 14.3247 4.45094 14.3251 4.46286 14.3262C4.4744 14.3274 4.48556 14.3296 4.4971 14.3296C4.51531 14.3296 4.52666 14.3274 4.5382 14.3262C4.54993 14.3251 4.56187 14.3247 4.5736 14.3225C4.5916 14.3192 4.60178 14.3151 4.61235 14.3118C4.62389 14.3083 4.63543 14.3057 4.64659 14.3011C4.66359 14.2946 4.67299 14.2882 4.68278 14.2829C4.69353 14.2772 4.7041 14.2726 4.71428 14.2659C4.72739 14.2575 4.73423 14.2507 4.74128 14.245C4.75771 14.2316 4.76555 14.2269 4.7722 14.2204C4.78022 14.212 6.93434 11.9838 6.93434 11.9838C7.08441 11.8284 7.07992 11.5815 6.92437 11.4318C6.76882 11.2821 6.52093 11.2865 6.37106 11.4417L4.89173 12.9723Z" fill="#F68633"/>
</g>
</svg>
