<svg width="33" height="38" viewBox="0 0 33 38" fill="none" xmlns="http://www.w3.org/2000/svg">
<path d="M21.2388 2.74855L8.78302 4.23183C7.58244 4.3748 6.72566 5.50564 6.87402 6.75148L10.0018 33.0173C10.1502 34.2637 11.2486 35.1617 12.4492 35.0187L24.9045 33.5355C26.1056 33.3925 26.9624 32.2616 26.814 31.0158L23.6862 4.74944C23.5378 3.5036 22.4394 2.60558 21.2388 2.74855ZM8.08263 8.47836L22.9169 6.71185L25.2388 26.2102L10.4046 27.9767L8.08263 8.47836ZM8.90523 5.25806L21.3606 3.77484C22.0167 3.6967 22.6162 4.18681 22.6972 4.86721L22.7947 5.68562L7.96043 7.45213L7.86297 6.63371C7.78194 5.95332 8.24955 5.33614 8.90523 5.25806ZM24.7828 32.5092L12.327 33.9925C11.6713 34.0706 11.0719 33.5804 10.9908 32.9001L10.5268 29.0029L25.361 27.2364L25.8251 31.1335C25.9061 31.8139 25.4385 32.4311 24.7828 32.5092Z" fill="#F68633"/>
<path d="M18.008 28.6354C16.9166 28.7654 16.1387 29.7917 16.2735 30.9237C16.4083 32.0556 17.4055 32.8705 18.4968 32.7406C19.5882 32.6106 20.3662 31.5843 20.2314 30.4523C20.0966 29.3203 19.0994 28.5055 18.008 28.6354ZM18.3746 31.7143C17.8289 31.7793 17.3303 31.3718 17.2629 30.8058C17.1955 30.2398 17.5845 29.7267 18.1302 29.6617C18.6759 29.5967 19.1745 30.0042 19.2419 30.5702C19.3093 31.1362 18.9203 31.6493 18.3746 31.7143Z" fill="#F68633"/>
<path d="M13.3392 6.28963L15.3175 6.05405C15.591 6.02148 15.7848 5.766 15.751 5.48251C15.7172 5.19902 15.4689 4.9962 15.1954 5.02876L13.2171 5.26435C12.9436 5.29692 12.7498 5.55239 12.7836 5.83588C12.8173 6.11937 13.0657 6.3222 13.3392 6.28963Z" fill="#F68633"/>
<path d="M16.8012 5.87725L17.2959 5.81834C17.5695 5.78576 17.7633 5.53034 17.7296 5.24692C17.6958 4.9635 17.4474 4.76073 17.1739 4.79331L16.6792 4.85222C16.4056 4.8848 16.2117 5.14023 16.2455 5.42365C16.2792 5.70707 16.5276 5.90983 16.8012 5.87725Z" fill="#F68633"/>
<path d="M28.4523 4.26771C28.235 4.09008 27.9224 4.12731 27.7529 4.351C27.5834 4.57469 27.6221 4.89902 27.8393 5.07665C29.9155 6.77391 30.287 9.89362 28.6675 12.0315C28.4981 12.2552 28.5367 12.5795 28.754 12.7571C28.8623 12.8457 28.9949 12.8809 29.1216 12.8659C29.2482 12.8508 29.3688 12.7854 29.4533 12.6739C31.4111 10.0908 30.9619 6.31932 28.4523 4.26771Z" fill="#F68633"/>
<path d="M26.5081 5.68371C26.2909 5.50611 25.9783 5.54333 25.8088 5.76699C25.6393 5.99064 25.678 6.31493 25.8952 6.49253C26.5826 7.05441 27.0201 7.85991 27.1272 8.75992C27.2344 9.65992 26.9983 10.5451 26.4621 11.2527C26.2926 11.4764 26.3312 11.8006 26.5485 11.9782C26.6568 12.0668 26.7894 12.102 26.916 12.0869C27.0426 12.0719 27.1633 12.0065 27.2478 11.895C27.9479 10.9717 28.2562 9.81614 28.1164 8.64213C27.9766 7.46812 27.406 6.41671 26.5081 5.68371Z" fill="#F68633"/>
<path d="M2.91731 8.04357C3.0868 7.81988 3.04818 7.49554 2.83089 7.31791C2.61361 7.14028 2.30101 7.17751 2.13152 7.4012C0.173848 9.98478 0.622905 13.7557 3.13255 15.8073C3.24091 15.8959 3.37352 15.9311 3.50014 15.9161C3.62676 15.901 3.74739 15.8356 3.83192 15.7241C4.00142 15.5004 3.9628 15.176 3.74551 14.9984C1.66884 13.3012 1.29733 10.1815 2.91731 8.04357Z" fill="#F68633"/>
<path d="M5.03554 8.09649C4.81828 7.91888 4.50572 7.95611 4.33624 8.17976C3.63616 9.10304 3.32787 10.2586 3.46767 11.4326C3.60748 12.6066 4.17851 13.6574 5.0759 14.391C5.18425 14.4796 5.31684 14.5148 5.44345 14.4997C5.57006 14.4846 5.69067 14.4193 5.7752 14.3077C5.94468 14.0841 5.90606 13.7598 5.6888 13.5822C5.00145 13.0203 4.56396 12.2148 4.45678 11.3148C4.34961 10.4148 4.58527 9.52966 5.12194 8.82203C5.29099 8.59895 5.25231 8.27415 5.03554 8.09649Z" fill="#F68633"/>
</svg>
