<svg width="39" height="47" viewBox="0 0 39 47" fill="none" xmlns="http://www.w3.org/2000/svg">
<path d="M37.6799 7.95898C31.4884 6.22131 25.2606 3.51561 19.6696 0.134456C19.3726 -0.0451441 19.0041 -0.0451441 18.7072 0.134456C12.955 3.61275 7.06366 6.17207 0.696444 7.95898C0.285116 8.0743 0 8.45726 0 8.89416V18.801C0 29.0029 4.59482 35.7559 8.44952 39.6244C12.5994 43.7894 17.4333 46.0927 19.1884 46.0927C20.9433 46.0927 25.7773 43.7894 29.9271 39.6244C33.7817 35.756 38.3763 29.003 38.3763 18.801V8.89406C38.3763 8.45726 38.0912 8.0743 37.6799 7.95898ZM36.4831 18.801C36.4831 28.3295 32.1975 34.6308 28.6021 38.2391C24.5212 42.3348 20.1581 44.1533 19.1884 44.1533C18.2187 44.1533 13.8553 42.3348 9.77438 38.2391C6.17905 34.6307 1.89325 28.3295 1.89325 18.801V9.63011C7.98212 7.85932 13.6526 5.38804 19.1886 2.09286C24.5863 5.30063 30.5397 7.89479 36.4831 9.62975V18.801Z" fill="#F68633"/>
<path d="M10.7978 9.52172C10.6062 9.02343 10.0566 8.77866 9.57009 8.975C7.87908 9.65748 6.14341 10.2857 4.41136 10.8422C4.01664 10.9691 3.74805 11.3436 3.74805 11.7673V15.5115C3.74805 16.047 4.17194 16.4811 4.69463 16.4811C5.21731 16.4811 5.64121 16.047 5.64121 15.5115V12.4759C7.19502 11.9609 8.74717 11.3914 10.2641 10.7791C10.7505 10.5829 10.9895 10.02 10.7978 9.52172Z" fill="#F68633"/>
<path d="M12.5952 9.70575C12.7222 9.70575 12.8512 9.67955 12.9748 9.62427L12.9922 9.61653C13.4711 9.40154 13.6868 8.8305 13.4769 8.34011C13.2669 7.84955 12.7062 7.62763 12.2278 7.84244L12.2125 7.84919C11.7334 8.06355 11.517 8.63414 11.7263 9.1248C11.8816 9.48905 12.23 9.70575 12.5952 9.70575Z" fill="#F68633"/>
<path d="M30.466 31.2639C30.0286 30.9711 29.442 31.097 29.1557 31.5453C28.3757 32.7682 27.4606 33.9392 26.4354 35.0255C25.5924 35.9188 24.6789 36.7513 23.7202 37.4999C23.3046 37.8245 23.2246 38.4329 23.5415 38.8588C23.7279 39.109 24.0098 39.2406 24.2949 39.2406C24.4951 39.2406 24.6968 39.1759 24.8682 39.0419C25.9022 38.2343 26.8875 37.3365 27.7964 36.3734C28.9048 35.1991 29.8953 33.9316 30.7407 32.6059C31.0268 32.1576 30.9036 31.5568 30.466 31.2639Z" fill="#F68633"/>
<path d="M21.523 39.0211L21.4686 39.0539C21.0163 39.3223 20.8617 39.9154 21.1236 40.3787C21.2991 40.6893 21.6168 40.8627 21.9437 40.8627C22.1045 40.8627 22.2678 40.8206 22.417 40.732L22.4796 40.6942C22.9308 40.4236 23.0823 39.8297 22.8181 39.3676C22.5537 38.9057 21.9738 38.7508 21.523 39.0211Z" fill="#F68633"/>
<path d="M12.7354 21.0675C12.1542 20.4721 11.3812 20.1444 10.5591 20.1444C9.73696 20.1444 8.96388 20.4722 8.3824 21.0675C7.18243 22.2969 7.18243 24.2972 8.3824 25.5265L13.9719 31.2515C14.5532 31.8468 15.3262 32.1746 16.1484 32.1746C16.9706 32.1746 17.7436 31.8468 18.325 31.2514L29.9934 19.2995C31.1933 18.0698 31.1933 16.0698 29.9932 14.8408C29.4119 14.2454 28.6389 13.9177 27.8166 13.9177C26.9944 13.9177 26.2214 14.2455 25.64 14.8408L16.1483 24.5631L12.7354 21.0675ZM26.9788 16.2121C27.2025 15.983 27.5001 15.8569 27.8167 15.8569C28.1335 15.8569 28.4309 15.983 28.6548 16.2121C29.1166 16.6852 29.1166 17.4552 28.6546 17.9285L16.9863 29.8802C16.7627 30.1093 16.465 30.2354 16.1484 30.2354C15.8318 30.2354 15.5341 30.1093 15.3104 29.8802L9.72106 24.1553C9.25902 23.6821 9.25902 22.912 9.72088 22.4389C9.94465 22.2098 10.2423 22.0835 10.559 22.0835C10.8757 22.0835 11.1732 22.2096 11.3969 22.4387L15.4789 26.62C15.6566 26.8018 15.8972 26.904 16.1483 26.904C16.3994 26.904 16.6401 26.8019 16.8175 26.62L26.9788 16.2121Z" fill="#F68633"/>
</svg>
