<svg width="33" height="43" viewBox="0 0 33 43" fill="none" xmlns="http://www.w3.org/2000/svg">
<path d="M27.7837 14.296C27.4188 11.5064 26.0772 8.94004 24.006 7.06958C21.9158 5.18206 19.2286 4.14258 16.4393 4.14258C13.6504 4.14258 10.9635 5.18173 8.87357 7.06868C6.80251 8.93848 5.46073 11.5042 5.09525 14.2932C5.05113 14.6298 5.28183 14.9395 5.61055 14.9847C5.93863 15.0304 6.24149 14.7935 6.28561 14.4568C6.96427 9.27805 11.3293 5.37285 16.4393 5.37285C21.5504 5.37285 25.9156 9.2792 26.5932 14.4594C26.6337 14.7684 26.8914 14.9929 27.1877 14.9929C27.2143 14.9929 27.2411 14.9911 27.2682 14.9874C27.5969 14.9423 27.8277 14.6327 27.7837 14.296Z" fill="#F68633"/>
<path d="M27.2776 16.6347C26.948 16.593 26.6486 16.8325 26.6079 17.1696C25.9747 22.4094 21.6038 26.3606 16.4408 26.3606C11.274 26.3606 6.90267 22.4062 6.27277 17.1621C6.23225 16.825 5.93316 16.5852 5.6034 16.6268C5.2742 16.6683 5.04021 16.9752 5.08073 17.3124C5.78462 23.1721 10.6683 27.5909 16.4408 27.5909C22.209 27.5909 27.0923 23.1757 27.7998 17.3207C27.8406 16.9836 27.6068 16.6765 27.2776 16.6347Z" fill="#F68633"/>
<path d="M19.9155 19.7453H18.5694V9.19403C18.5694 8.75694 18.2222 8.40137 17.7955 8.40137H15.7705C15.5888 8.40137 15.4121 8.46723 15.273 8.58682L11.5939 11.7493C11.2729 12.0253 11.2236 12.5064 11.4817 12.8445L12.6883 14.4263C12.8162 14.5939 13.0081 14.7033 13.2146 14.7262C13.4214 14.7492 13.6314 14.6845 13.7915 14.5487L14.6299 13.8377V19.7453H12.9304V19.7453C12.5036 19.7453 12.1565 20.101 12.1565 20.538V22.4191C12.1565 22.8562 12.5036 23.2118 12.9304 23.2118H19.9155C20.3422 23.2118 20.6894 22.8561 20.6894 22.4191V20.538C20.6894 20.1009 20.3422 19.7453 19.9155 19.7453ZM19.4884 21.9817H13.3576V20.9757H15.0571C15.4839 20.9757 15.831 20.6201 15.831 20.183V12.9074C15.8309 12.5971 15.6607 12.3222 15.3865 12.1902C15.1122 12.058 14.7971 12.0989 14.5635 12.2969L13.3641 13.3141L12.682 12.4202L15.926 9.63171H17.3684V20.183C17.3684 20.6201 17.7155 20.9757 18.1422 20.9757H19.4884V21.9817Z" fill="#F68633"/>
<path d="M32.7257 35.2447L27.3148 26.5755C27.9239 26.4463 28.4731 26.0939 28.8513 25.5809C29.2873 24.9895 29.4612 24.2325 29.3284 23.504C29.2159 22.8874 29.5203 22.2613 30.0685 21.9815C30.7161 21.6511 31.2011 21.0528 31.3991 20.34C31.5971 19.6272 31.4923 18.8569 31.1115 18.2268C30.7892 17.6934 30.8523 16.997 31.2647 16.5333C31.752 15.9856 31.9933 15.2482 31.9265 14.5103C31.8597 13.7724 31.4904 13.093 30.913 12.6462C30.4243 12.2681 30.2375 11.5954 30.4587 11.0103C30.7199 10.3192 30.6847 9.54246 30.3623 8.87897C30.0398 8.21558 29.4557 7.71876 28.7598 7.51576C28.1708 7.34392 27.7592 6.78584 27.7592 6.15853C27.759 5.41746 27.4522 4.70607 26.9175 4.2068C26.3829 3.70753 25.6629 3.4604 24.9426 3.52856C24.3326 3.58646 23.7522 3.2181 23.5308 2.6332C23.2693 1.94216 22.7324 1.39236 22.0577 1.12464C21.383 0.856997 20.6246 0.892759 19.9769 1.22298C19.4287 1.50243 18.7574 1.37399 18.3447 0.910476C17.8573 0.362893 17.1627 0.0488281 16.4392 0.0488281C15.7157 0.0488281 15.0212 0.362893 14.5336 0.910394C14.1209 1.37382 13.4496 1.50243 12.9013 1.2229C12.2536 0.892677 11.4953 0.856915 10.8206 1.12455C10.1459 1.39228 9.60902 1.94207 9.34749 2.63312C9.12615 3.21802 8.54486 3.58622 7.93579 3.52847C7.21517 3.46023 6.49551 3.70737 5.96083 4.20672C5.42615 4.70599 5.11937 5.41737 5.11921 6.15845C5.11913 6.78576 4.70761 7.34392 4.11856 7.51568C3.42268 7.7186 2.83859 8.21549 2.51612 8.87889C2.19364 9.54229 2.15849 10.3191 2.4197 11.0103C2.6408 11.5952 2.45398 12.268 1.96534 12.6461C1.38806 13.0929 1.01866 13.7723 0.951874 14.5102C0.885169 15.2481 1.12636 15.9855 1.61364 16.5332C2.02612 16.9969 2.08914 17.6933 1.76683 18.2268C1.38606 18.8569 1.28131 19.6272 1.47927 20.34C1.6773 21.0528 2.16225 21.6511 2.80984 21.9815C3.35806 22.2613 3.66243 22.8874 3.55 23.504C3.41715 24.2325 3.59108 24.9895 4.02711 25.5809C4.40532 26.0938 4.95449 26.4463 5.56356 26.5755L0.152696 35.2447C-0.0464574 35.5639 -0.051102 35.9633 0.140525 36.2872C0.332151 36.6112 0.68073 36.7916 1.04837 36.7585L6.32935 36.2826L8.12413 41.392C8.24938 41.7484 8.55535 41.996 8.92283 42.0382C8.95959 42.0424 8.99618 42.0445 9.03254 42.0445C9.35918 42.0445 9.66219 41.8764 9.84141 41.5894L16.4392 31.0184L23.0369 41.5892C23.2161 41.8764 23.519 42.0443 23.8458 42.0443C23.8821 42.0443 23.9188 42.0423 23.9555 42.038C24.323 41.9958 24.629 41.7482 24.7542 41.3918L26.5491 36.2823L31.83 36.7583C32.1984 36.7914 32.5463 36.6109 32.7379 36.2871C32.9295 35.9633 32.9248 35.5638 32.7257 35.2447ZM1.42546 35.4895L6.70083 27.0373C6.88853 27.2328 7.02242 27.4834 7.07391 27.7651C7.17089 28.2959 7.4257 28.7801 7.79461 29.1551L4.03776 35.254L1.42546 35.4895ZM7.62549 36.3386L7.39735 35.6891C7.24944 35.268 6.84225 35.001 6.40686 35.0405L5.54138 35.1185L8.82145 29.7935C9.30168 29.9509 9.82187 29.9635 10.3143 29.8201C10.73 29.699 11.1688 29.7899 11.5047 30.0408L7.62549 36.3386ZM9.09036 40.5087L8.14127 37.8068L12.3305 31.0059C12.6798 31.3276 13.1118 31.5503 13.5812 31.6402C13.9354 31.7079 14.2965 31.6978 14.6411 31.6154L9.09036 40.5087ZM16.8134 29.6683C16.775 29.6596 16.7357 29.6549 16.6963 29.654C16.6108 29.6453 16.5251 29.6394 16.4392 29.6394C16.3533 29.6394 16.2677 29.6453 16.1822 29.654C16.1426 29.6548 16.1033 29.6596 16.0647 29.6683C15.6454 29.7306 15.2382 29.8971 14.8853 30.17C14.5723 30.412 14.1874 30.5045 13.8018 30.4308C13.4162 30.357 13.0902 30.1282 12.8836 29.7866C12.8398 29.7144 12.7922 29.6456 12.7425 29.5789C12.7349 29.5688 12.7273 29.5587 12.7189 29.549C12.08 28.7165 10.9961 28.3425 9.98571 28.6367C9.60846 28.7467 9.21696 28.6907 8.88343 28.4792C8.54991 28.2676 8.32649 27.9337 8.25434 27.5387C8.10051 26.6967 7.55534 26.0013 6.82895 25.6437C6.7918 25.6214 6.75336 25.6037 6.71396 25.5904C6.47677 25.488 6.22292 25.4194 5.95771 25.3942C5.56717 25.3571 5.22187 25.1601 4.98548 24.8394C4.74909 24.5188 4.65852 24.1247 4.73059 23.7297C4.94096 22.5755 4.37136 21.4038 3.34532 20.8803C2.99426 20.7011 2.74178 20.3896 2.63439 20.0032C2.52709 19.6167 2.58162 19.2157 2.78806 18.8741C3.39137 17.8758 3.27341 16.5724 2.5013 15.7045C2.23705 15.4076 2.11156 15.0236 2.14768 14.6236C2.18387 14.2235 2.37614 13.8698 2.68917 13.6276C3.60374 12.9198 3.95352 11.6609 3.53959 10.5659C3.39794 10.1913 3.41627 9.78688 3.59116 9.42721C3.76597 9.06754 4.07003 8.80884 4.44736 8.69885C5.54979 8.37724 6.3199 7.33268 6.32014 6.15861C6.32022 5.75678 6.47989 5.38653 6.76978 5.11578C7.05966 4.8451 7.43442 4.71624 7.82504 4.7534C8.96688 4.86175 10.0529 4.17243 10.4672 3.07768C10.609 2.70308 10.8886 2.41674 11.2544 2.27164C11.6201 2.12654 12.015 2.14516 12.3661 2.32422C13.3924 2.84728 14.6485 2.60679 15.4209 1.73931C15.6853 1.44247 16.0468 1.279 16.4391 1.279C16.8314 1.279 17.193 1.44247 17.4573 1.73931C18.2296 2.60679 19.4859 2.84728 20.5121 2.32422C20.8633 2.14524 21.258 2.12654 21.6238 2.27164C21.9896 2.41674 22.2692 2.70308 22.4109 3.07768C22.8252 4.17235 23.9111 4.86159 25.0532 4.7534C25.4436 4.71624 25.8184 4.8451 26.1084 5.11578C26.3982 5.38653 26.5579 5.75678 26.558 6.15861C26.5582 7.33268 27.3283 8.37724 28.4308 8.69885C28.808 8.80884 29.1121 9.06754 29.2869 9.42721C29.4618 9.78688 29.48 10.1913 29.3384 10.5659C28.9245 11.6609 29.2742 12.9198 30.1888 13.6276C30.5018 13.8698 30.6941 14.2235 30.7303 14.6236C30.7665 15.0237 30.6409 15.4076 30.3767 15.7045C29.6046 16.5724 29.4867 17.8757 30.0899 18.874C30.2964 19.2157 30.3509 19.6166 30.2435 20.0031C30.1362 20.3896 29.8837 20.7011 29.5326 20.8802C28.5066 21.4037 27.937 22.5755 28.1474 23.7296C28.2194 24.1246 28.1289 24.5186 27.8925 24.8393C27.6561 25.16 27.3108 25.357 26.9202 25.3941C26.6547 25.4194 26.4007 25.4881 26.1633 25.5907C26.1242 25.6039 26.086 25.6215 26.0492 25.6435C25.3227 26.001 24.7774 26.6966 24.6236 27.5386C24.5514 27.9336 24.328 28.2676 23.9945 28.4791C23.6609 28.6906 23.2694 28.7465 22.8922 28.6367C21.8816 28.3424 20.7975 28.7166 20.1586 29.5494C20.1506 29.5588 20.1433 29.5685 20.1359 29.5783C20.0861 29.6451 20.0383 29.714 19.9944 29.7865C19.7879 30.1282 19.4617 30.3569 19.0762 30.4307C18.6907 30.5044 18.3058 30.412 17.9927 30.1699C17.64 29.897 17.2328 29.7306 16.8134 29.6683ZM23.788 40.5087L18.2366 31.6143C18.4291 31.6604 18.6265 31.6849 18.8252 31.6849C18.9825 31.6849 19.1405 31.6701 19.2972 31.6402C19.7666 31.5503 20.1984 31.3277 20.5478 31.006L24.7371 37.807L23.788 40.5087ZM26.4715 35.0405C26.0357 35.0012 25.6289 35.268 25.481 35.6891L25.2528 36.3389L21.3735 30.0411C21.7095 29.7901 22.1483 29.6991 22.5641 29.8203C23.0564 29.9636 23.5766 29.951 24.0568 29.7937L27.3368 35.1185L26.4715 35.0405ZM28.8404 35.254L25.0837 29.1552C25.4527 28.7803 25.7075 28.296 25.8045 27.7651C25.856 27.4834 25.9898 27.2328 26.1775 27.0374L31.4529 35.4895L28.8404 35.254Z" fill="#F68633"/>
</svg>
