<svg width="33" height="34" viewBox="0 0 33 34" fill="none" xmlns="http://www.w3.org/2000/svg">
<path d="M29.7773 3.05032H26.7051V2.12606C26.7051 1.03398 25.8376 0.145508 24.7715 0.145508C23.7053 0.145508 22.8379 1.03398 22.8379 2.12606V3.05032H12.0097V2.12606C12.0097 1.03398 11.1423 0.145508 10.0761 0.145508C9.00997 0.145508 8.14256 1.03398 8.14256 2.12606V3.07475C8.08777 3.05923 8.03034 3.05032 7.97072 3.05032H5.40265C3.62568 3.05032 2.18 4.53111 2.18 6.35124V17.5964C2.18 17.961 2.46862 18.2566 2.82453 18.2566C3.18044 18.2566 3.46906 17.961 3.46906 17.5964V9.85022H26.7051C27.061 9.85022 27.3496 9.55466 27.3496 9.19004C27.3496 8.82542 27.061 8.52985 26.7051 8.52985H3.46906V6.35124C3.46906 5.25917 4.33647 4.37069 5.40265 4.37069H7.97072C8.03034 4.37069 8.08777 4.36171 8.14256 4.34626V5.19592C8.14256 6.288 9.00997 7.17647 10.0761 7.17647C11.1423 7.17647 12.0097 6.288 12.0097 5.19592V4.37069H22.8379V5.19592C22.8379 6.288 23.7053 7.17647 24.7715 7.17647C25.8376 7.17647 26.7051 6.288 26.7051 5.19592V4.37069H29.7773C30.8435 4.37069 31.7109 5.25917 31.7109 6.35124V31.4379C31.7109 32.0933 31.1903 32.6266 30.5504 32.6266C29.9104 32.6266 29.3899 32.0933 29.3899 31.4379V29.73C29.3899 29.3654 29.1012 29.0698 28.7453 29.0698H21.2481C20.8922 29.0698 20.6035 29.3654 20.6035 29.73C20.6035 30.0947 20.8922 30.3902 21.2481 30.3902H28.1008V31.4379C28.1008 31.8677 28.207 32.2725 28.3937 32.6266H2.44922C1.80952 32.6266 1.28906 32.0935 1.28906 31.4383V30.3902H15.7153C16.0712 30.3902 16.3598 30.0947 16.3598 29.73C16.3598 29.3654 16.0712 29.0698 15.7153 29.0698H9.27538C10.4016 28.0763 11.1168 26.6068 11.1168 24.9684C11.1168 21.9834 8.7459 19.5549 5.83165 19.5549C2.91741 19.5549 0.546498 21.9834 0.546498 24.9684C0.546498 26.6068 1.26167 28.0763 2.38792 29.0698H0.644531C0.288621 29.0698 0 29.3654 0 29.73V31.4383C0 32.8215 1.09873 33.947 2.44922 33.947H30.5504C31.9011 33.947 33 32.8214 33 31.4379V6.35124C33 4.53111 31.5543 3.05032 29.7773 3.05032ZM10.7207 5.19592C10.7207 5.55995 10.4315 5.8561 10.0761 5.8561C9.72076 5.8561 9.43162 5.55995 9.43162 5.19592V2.12606C9.43162 1.76204 9.72076 1.46588 10.0761 1.46588C10.4315 1.46588 10.7207 1.76204 10.7207 2.12606V5.19592ZM25.416 5.19592C25.416 5.55995 25.1269 5.8561 24.7715 5.8561C24.4161 5.8561 24.1269 5.55995 24.1269 5.19592V2.12606C24.1269 1.76204 24.4161 1.46588 24.7715 1.46588C25.1269 1.46588 25.416 1.76204 25.416 2.12606V5.19592ZM1.83556 24.9684C1.83556 22.7115 3.6282 20.8753 5.83165 20.8753C8.03511 20.8753 9.82775 22.7115 9.82775 24.9684C9.82775 27.2254 8.03511 29.0616 5.83165 29.0616C3.6282 29.0616 1.83556 27.2254 1.83556 24.9684Z" fill="#F68633"/>
<path d="M30.1841 8.72346C30.0643 8.60067 29.898 8.53003 29.7285 8.53003C29.5589 8.53003 29.3927 8.60067 29.2728 8.72346C29.153 8.84626 29.084 9.01659 29.084 9.19022C29.084 9.36385 29.1529 9.53417 29.2728 9.65697C29.3928 9.77976 29.5589 9.8504 29.7285 9.8504C29.898 9.8504 30.0643 9.77976 30.1841 9.65697C30.304 9.53417 30.373 9.36385 30.373 9.19022C30.373 9.01659 30.3041 8.84626 30.1841 8.72346Z" fill="#F68633"/>
<path d="M19.2486 29.2628C19.1288 29.14 18.9625 29.0701 18.793 29.0701C18.6235 29.0701 18.4572 29.14 18.3373 29.2628C18.2174 29.3863 18.1484 29.556 18.1484 29.7296C18.1484 29.9039 18.2173 30.0735 18.3373 30.197C18.4572 30.3198 18.6235 30.3898 18.793 30.3898C18.9625 30.3898 19.1288 30.3198 19.2486 30.197C19.3685 30.0735 19.4375 29.9032 19.4375 29.7296C19.4375 29.556 19.3685 29.3863 19.2486 29.2628Z" fill="#F68633"/>
<path d="M14.582 20.2153C13.2315 20.2153 12.1328 21.3407 12.1328 22.724C12.1328 24.1073 13.2315 25.2327 14.582 25.2327C15.9325 25.2327 17.0312 24.1073 17.0312 22.724C17.0312 21.3407 15.9325 20.2153 14.582 20.2153ZM14.582 23.9124C13.9423 23.9124 13.4219 23.3793 13.4219 22.724C13.4219 22.0688 13.9423 21.5357 14.582 21.5357C15.2217 21.5357 15.7422 22.0688 15.7422 22.724C15.7422 23.3793 15.2217 23.9124 14.582 23.9124Z" fill="#F68633"/>
<path d="M20.5977 20.2153C19.2472 20.2153 18.1484 21.3407 18.1484 22.724C18.1484 24.1073 19.2472 25.2327 20.5977 25.2327C21.9481 25.2327 23.0469 24.1073 23.0469 22.724C23.0469 21.3407 21.9481 20.2153 20.5977 20.2153ZM20.5977 23.9124C19.958 23.9124 19.4375 23.3793 19.4375 22.724C19.4375 22.0688 19.958 21.5357 20.5977 21.5357C21.2374 21.5357 21.7578 22.0688 21.7578 22.724C21.7578 23.3793 21.2374 23.9124 20.5977 23.9124Z" fill="#F68633"/>
<path d="M26.6133 20.2153C25.2628 20.2153 24.1641 21.3407 24.1641 22.724C24.1641 24.1073 25.2628 25.2327 26.6133 25.2327C27.9638 25.2327 29.0625 24.1073 29.0625 22.724C29.0625 21.3407 27.9638 20.2153 26.6133 20.2153ZM26.6133 23.9124C25.9736 23.9124 25.4531 23.3793 25.4531 22.724C25.4531 22.0688 25.9736 21.5357 26.6133 21.5357C27.253 21.5357 27.7734 22.0688 27.7734 22.724C27.7734 23.3793 27.253 23.9124 26.6133 23.9124Z" fill="#F68633"/>
<path d="M8.56641 13.3491C7.21592 13.3491 6.11719 14.4745 6.11719 15.8578C6.11719 17.2411 7.21592 18.3666 8.56641 18.3666C9.91689 18.3666 11.0156 17.2411 11.0156 15.8578C11.0156 14.4745 9.91689 13.3491 8.56641 13.3491ZM8.56641 17.0462C7.92671 17.0462 7.40625 16.5131 7.40625 15.8578C7.40625 15.2026 7.92671 14.6695 8.56641 14.6695C9.2061 14.6695 9.72656 15.2026 9.72656 15.8578C9.72656 16.5131 9.2061 17.0462 8.56641 17.0462Z" fill="#F68633"/>
<path d="M20.5977 13.3491C19.2472 13.3491 18.1484 14.4745 18.1484 15.8578C18.1484 17.2411 19.2472 18.3666 20.5977 18.3666C21.9481 18.3666 23.0469 17.2411 23.0469 15.8578C23.0469 14.4745 21.9481 13.3491 20.5977 13.3491ZM20.5977 17.0462C19.958 17.0462 19.4375 16.5131 19.4375 15.8578C19.4375 15.2026 19.958 14.6695 20.5977 14.6695C21.2374 14.6695 21.7578 15.2026 21.7578 15.8578C21.7578 16.5131 21.2374 17.0462 20.5977 17.0462Z" fill="#F68633"/>
<path d="M26.6133 13.3491C25.2628 13.3491 24.1641 14.4745 24.1641 15.8578C24.1641 17.2411 25.2628 18.3666 26.6133 18.3666C27.9638 18.3666 29.0625 17.2411 29.0625 15.8578C29.0625 14.4745 27.9638 13.3491 26.6133 13.3491ZM26.6133 17.0462C25.9736 17.0462 25.4531 16.5131 25.4531 15.8578C25.4531 15.2026 25.9736 14.6695 26.6133 14.6695C27.253 14.6695 27.7734 15.2026 27.7734 15.8578C27.7734 16.5131 27.253 17.0462 26.6133 17.0462Z" fill="#F68633"/>
<path d="M14.582 13.3491C13.2315 13.3491 12.1328 14.4745 12.1328 15.8578C12.1328 17.2411 13.2315 18.3666 14.582 18.3666C15.9325 18.3666 17.0312 17.2411 17.0312 15.8578C17.0312 14.4745 15.9325 13.3491 14.582 13.3491ZM14.582 17.0462C13.9423 17.0462 13.4219 16.5131 13.4219 15.8578C13.4219 15.2026 13.9423 14.6695 14.582 14.6695C15.2217 14.6695 15.7422 15.2026 15.7422 15.8578C15.7422 16.5131 15.2217 17.0462 14.582 17.0462Z" fill="#F68633"/>
<path d="M8.12892 23.3594C7.87717 23.1016 7.46918 23.1016 7.21737 23.3594L5.1184 25.5094L4.4011 24.7747C4.14935 24.5169 3.74136 24.5169 3.48955 24.7747C3.23786 25.0325 3.23786 25.4505 3.48955 25.7084L4.66265 26.9099C4.78357 27.0337 4.94747 27.1033 5.1184 27.1033C5.28933 27.1033 5.45323 27.0337 5.57414 26.9099L8.12892 24.293C8.38061 24.0352 8.38061 23.6172 8.12892 23.3594Z" fill="#F68633"/>
</svg>
