<svg width="42" height="46" viewBox="0 0 42 46" fill="none" xmlns="http://www.w3.org/2000/svg">
<path d="M21.883 28.5351C22.6464 28.4742 23.3423 28.0754 23.7941 27.4392L30.6603 17.7164C30.8707 17.4182 30.8392 17.0065 30.584 16.7452C30.3288 16.4845 29.9269 16.4522 29.6358 16.667L20.1421 23.7022C19.5231 24.1634 19.1337 24.8763 19.0743 25.6582C19.0149 26.4401 19.2914 27.2056 19.8319 27.7591C20.3239 28.2639 20.9876 28.5433 21.6777 28.5433C21.7459 28.5433 21.8141 28.5403 21.883 28.5351ZM20.5366 25.7754C20.5623 25.4321 20.7339 25.1189 21.0037 24.9176L26.7949 20.6263L22.6068 26.5566C22.4088 26.8352 22.103 27.0103 21.7679 27.0373C21.4342 27.0598 21.1064 26.9411 20.8681 26.697C20.6319 26.4544 20.5102 26.1179 20.5366 25.7754Z" fill="#F68633"/>
<path d="M38.3101 14.6953C38.3027 14.6796 38.3027 14.6631 38.2947 14.6473C38.2859 14.6323 38.2719 14.624 38.2624 14.6097C37.521 13.3072 36.6439 12.0956 35.6481 10.9975L37.2232 9.38477L38.2602 10.4469L41.371 7.25979L38.2602 4.07344L35.1486 7.25979L36.1863 8.32266L34.6111 9.93536C33.539 8.91531 32.3568 8.01619 31.0845 7.25679C31.0706 7.24702 31.0625 7.23275 31.0479 7.22374C31.0325 7.21472 31.0163 7.21547 31.0009 7.20721C28.7327 5.86868 26.1844 4.97707 23.4674 4.65032V3.75571H24.5674C25.5786 3.75571 26.4007 2.91368 26.4007 1.87786C26.4007 0.842031 25.5779 0 24.5666 0H17.9666C16.9554 0 16.1333 0.842031 16.1333 1.87786C16.1333 2.91368 16.9554 3.75571 17.9666 3.75571H19.0666V4.62403C18.2746 4.71041 17.4841 4.84262 16.7024 5.02589C16.3078 5.11828 16.0607 5.52165 16.1516 5.92576C16.2418 6.32988 16.6356 6.58376 17.0302 6.48987C17.7048 6.33138 18.3861 6.21195 19.0688 6.13158L19.8557 6.06923C20.0962 6.05045 20.3177 6.03693 20.5333 6.02642V7.51142C20.5333 7.92681 20.8611 8.26257 21.2666 8.26257C21.6722 8.26257 22 7.92681 22 7.51142V6.03167C24.758 6.16162 27.357 6.92027 29.6677 8.16867L28.9447 9.45087C28.7423 9.81067 28.8625 10.2696 29.2131 10.4769C29.3282 10.5453 29.4543 10.5776 29.579 10.5776C29.8327 10.5776 30.0791 10.4431 30.2148 10.202L30.9357 8.92282C33.2303 10.4138 35.1795 12.4104 36.6351 14.7607L35.3863 15.4991C35.0365 15.7064 34.9162 16.1653 35.1193 16.5251C35.2557 16.7662 35.5014 16.9007 35.7551 16.9007C35.8798 16.9007 36.0059 16.8684 36.121 16.8001L37.3729 16.0594C38.6085 18.4601 39.3514 21.1657 39.4621 24.0358H38.0138C37.6083 24.0358 37.2805 24.3716 37.2805 24.7869C37.2805 25.2023 37.6083 25.5381 38.0138 25.5381H39.4621C39.3514 28.4082 38.6085 31.1138 37.3729 33.5145L36.121 32.7738C35.7705 32.5665 35.3217 32.6882 35.1193 33.0488C34.9169 33.4086 35.0372 33.8675 35.3877 34.0748L36.6366 34.8132C35.1809 37.1635 33.2317 39.1601 30.9371 40.6511L30.2163 39.3719C30.0131 39.0113 29.5636 38.8889 29.2145 39.097C28.8632 39.3043 28.743 39.764 28.9461 40.123L29.6692 41.4052C27.3584 42.6536 24.7595 43.4123 22.0014 43.5422V42.064C22.0014 41.6486 21.6736 41.3128 21.2681 41.3128C20.8626 41.3128 20.5348 41.6486 20.5348 42.064V43.5482C19.3636 43.5069 18.1888 43.3567 17.0324 43.0848C16.6378 42.9879 16.244 43.2448 16.1538 43.6489C16.0629 44.053 16.31 44.4564 16.7046 44.5488C18.1683 44.8943 19.6636 45.0685 21.1471 45.0685C21.183 45.0685 21.2175 45.0663 21.2534 45.0655C21.2586 45.0655 21.2622 45.0685 21.2666 45.0685C21.2725 45.0685 21.2776 45.0648 21.2835 45.0648C24.8087 45.04 28.116 44.065 30.9775 42.381C31.0002 42.3704 31.0244 42.3652 31.0464 42.3517C31.0611 42.3426 31.0691 42.3284 31.0831 42.3186C34.045 40.5504 36.52 38.0183 38.2499 34.9867C38.2639 34.9664 38.2815 34.9507 38.2939 34.9281C38.3027 34.9123 38.302 34.8958 38.3093 34.88C39.9843 31.9055 40.9471 28.4608 40.9471 24.7877C40.9471 21.1146 39.9843 17.6699 38.3101 14.6953ZM38.2595 6.19768L39.2964 7.25979L38.2595 8.32266L37.2218 7.25979L38.2595 6.19768ZM20.5333 4.52263V2.25343H17.9666C17.765 2.25343 17.6 2.08442 17.6 1.87786C17.6 1.67129 17.765 1.50228 17.9666 1.50228H24.5666C24.7683 1.50228 24.9333 1.67129 24.9333 1.87786C24.9333 2.08442 24.7683 2.25343 24.5666 2.25343H22V4.52263C21.7448 4.51211 21.5013 4.50685 21.2666 4.50685C21.2461 4.50685 21.2226 4.50836 21.2021 4.50836C21.1838 4.50836 21.1654 4.50685 21.1471 4.50685C21.0268 4.50685 20.9066 4.51512 20.7863 4.51737C20.7012 4.51962 20.6213 4.51887 20.5333 4.52263Z" fill="#F68633"/>
<path d="M14.6656 10.5164H10.999C10.5934 10.5164 10.2656 10.8521 10.2656 11.2675C10.2656 11.6829 10.5934 12.0187 10.999 12.0187H14.6656C15.0712 12.0187 15.399 11.6829 15.399 11.2675C15.399 10.8521 15.0712 10.5164 14.6656 10.5164Z" fill="#F68633"/>
<path d="M14.6663 15.7739H7.33294C6.92741 15.7739 6.59961 16.1097 6.59961 16.5251C6.59961 16.9404 6.92741 17.2762 7.33294 17.2762H14.6663C15.0718 17.2762 15.3996 16.9404 15.3996 16.5251C15.3996 16.1097 15.0718 15.7739 14.6663 15.7739Z" fill="#F68633"/>
<path d="M14.6669 21.032H3.66693C3.26139 21.032 2.93359 21.3678 2.93359 21.7831C2.93359 22.1985 3.26139 22.5343 3.66693 22.5343H14.6669C15.0725 22.5343 15.4003 22.1985 15.4003 21.7831C15.4003 21.3678 15.0725 21.032 14.6669 21.032Z" fill="#F68633"/>
<path d="M14.6667 26.2903H0.733333C0.3278 26.2903 0 26.6261 0 27.0414C0 27.4568 0.3278 27.7926 0.733333 27.7926H14.6667C15.0722 27.7926 15.4 27.4568 15.4 27.0414C15.4 26.6261 15.0722 26.2903 14.6667 26.2903Z" fill="#F68633"/>
<path d="M14.6671 31.5481H5.13372C4.72819 31.5481 4.40039 31.8838 4.40039 32.2992C4.40039 32.7146 4.72819 33.0503 5.13372 33.0503H14.6671C15.0726 33.0503 15.4004 32.7146 15.4004 32.2992C15.4004 31.8838 15.0726 31.5481 14.6671 31.5481Z" fill="#F68633"/>
<path d="M14.6674 36.8059H9.53411C9.12858 36.8059 8.80078 37.1417 8.80078 37.5571C8.80078 37.9725 9.12858 38.3082 9.53411 38.3082H14.6674C15.073 38.3082 15.4008 37.9725 15.4008 37.5571C15.4008 37.1417 15.073 36.8059 14.6674 36.8059Z" fill="#F68633"/>
</svg>
