<svg width="47" height="35" viewBox="0 0 47 35" fill="none" xmlns="http://www.w3.org/2000/svg">
<path d="M40.8615 15.7978C39.2856 14.9908 36.3308 14.9814 36.2058 14.9814C35.8311 14.9814 35.5273 15.2926 35.5273 15.6764C35.5273 16.0601 35.8311 16.3713 36.2058 16.3713C36.9682 16.3714 39.182 16.4916 40.2547 17.041C40.3522 17.0909 40.4556 17.1144 40.5576 17.1144C40.8064 17.1144 41.0461 16.9736 41.1649 16.7302C41.3325 16.3869 41.1967 15.9695 40.8615 15.7978Z" fill="#F68633"/>
<path d="M44.2439 25.6918L41.442 24.8719C41.321 24.8365 41.2365 24.7218 41.2365 24.5929V23.6349C41.4645 23.4731 41.6819 23.2921 41.8852 23.09C42.8703 22.1108 43.4128 20.7975 43.4128 19.3917V18.0698L43.6837 17.5149C43.981 16.9057 44.1381 16.2237 44.1381 15.5427V11.9616C44.1381 11.5778 43.8344 11.2667 43.4597 11.2667H36.9311C34.5571 11.2667 32.6257 13.245 32.6257 15.6767V15.7181C32.6257 16.2844 32.7564 16.8515 33.0036 17.358L33.3511 18.0697V19.2047C33.3511 21.0035 34.2165 22.6175 35.5273 23.5887L35.5275 24.5927C35.5275 24.7475 35.5275 24.8116 34.9673 24.9756L33.6001 25.3757L29.6452 23.9027C29.6594 23.7115 29.5964 23.5172 29.4603 23.3707L28.1965 22.0107V19.7277C28.3301 19.6149 28.4618 19.4991 28.5895 19.3766C30.1838 17.846 31.0981 15.6849 31.0981 13.4476V11.6243C31.5795 10.5513 31.8235 9.41582 31.8235 8.24644V0.816489C31.8235 0.432715 31.5198 0.121582 31.1451 0.121582H20.9895C17.4155 0.121582 14.5079 3.09986 14.5079 6.76054V8.24662C14.5079 9.41601 14.7519 10.5515 15.2333 11.6245V13.1932C15.2333 15.7909 16.361 18.1312 18.1349 19.674V22.0108L16.8711 23.3708C16.735 23.5172 16.6721 23.7116 16.6863 23.9028L12.5121 25.4574C12.2096 25.5701 11.9285 25.7227 11.6734 25.9075L11.0179 25.5719C12.9691 24.7019 13.5872 23.4784 13.6168 23.4176C13.7124 23.2221 13.7124 22.9917 13.6168 22.7961C13.1277 21.7942 13.0685 19.9577 13.0209 18.482C13.0051 17.9908 12.9901 17.5267 12.9614 17.1134C12.7301 13.7803 10.2563 11.2667 7.20693 11.2667C4.15761 11.2667 1.68369 13.7802 1.45248 17.1134C1.4238 17.5268 1.40879 17.9909 1.39296 18.4822C1.34538 19.9578 1.28604 21.7941 0.797022 22.796C0.701498 22.9916 0.701498 23.222 0.797022 23.4176C0.826692 23.4783 1.44352 24.6993 3.39858 25.5703L1.57794 26.5027C0.604618 27.0015 0 28.0036 0 29.1181V34.252C0 34.6358 0.303756 34.9469 0.678432 34.9469C1.05311 34.9469 1.35686 34.6358 1.35686 34.252V29.1181C1.35686 28.5333 1.6741 28.0075 2.18473 27.7459L4.45187 26.5848L5.24048 27.3525C5.79191 27.8892 6.49928 28.1575 7.20693 28.1575C7.9144 28.1575 8.62214 27.889 9.17339 27.3525L9.96191 26.5849L10.7011 26.9635C10.353 27.534 10.1555 28.203 10.1555 28.9037V34.2522C10.1555 34.6359 10.4592 34.9471 10.8339 34.9471C11.2086 34.9471 11.5124 34.6359 11.5124 34.2522V28.9037C11.5124 27.9497 12.1004 27.0897 12.9758 26.7637L17.3767 25.1245L19.2088 27.9395C19.4429 28.2993 19.8183 28.5301 20.2384 28.5727C20.2853 28.5775 20.3319 28.5798 20.3784 28.5798C20.7491 28.5798 21.1041 28.4303 21.3695 28.1586L22.4872 27.0137V34.2523C22.4872 34.636 22.791 34.9472 23.1656 34.9472C23.5403 34.9472 23.8441 34.636 23.8441 34.2523V27.0137L24.9618 28.1586C25.2271 28.4304 25.5821 28.5799 25.9529 28.5799C25.9993 28.5799 26.046 28.5776 26.0928 28.5728C26.513 28.5302 26.8883 28.2994 27.1225 27.9395L28.9547 25.1247L33.3555 26.7639C34.2308 27.0899 34.8189 27.9499 34.8189 28.9039V34.2524C34.8189 34.6361 35.1227 34.9473 35.4974 34.9473C35.872 34.9473 36.1758 34.6361 36.1758 34.2524V28.9039C36.1758 27.9377 35.801 27.0315 35.1723 26.3614L35.34 26.3124C35.509 26.2629 35.7397 26.1951 35.9713 26.0789L37.7034 27.8531V34.2524C37.7034 34.6361 38.0072 34.9473 38.3819 34.9473C38.7565 34.9473 39.0603 34.6361 39.0603 34.2524V27.8531L40.7804 26.0912C40.8719 26.1388 40.968 26.179 41.0691 26.2086L43.8711 27.0286C44.5106 27.2157 44.9574 27.8223 44.9574 28.5037V34.2524C44.9574 34.6361 45.2612 34.9473 45.6358 34.9473C46.0105 34.9473 46.3143 34.6361 46.3143 34.2524V28.5037C46.3143 27.2049 45.4629 26.0487 44.2439 25.6918ZM4.35237 24.4645C3.08334 23.9967 2.44679 23.3732 2.17505 23.0327C2.36031 22.5366 2.48044 21.9684 2.56176 21.3687C2.93589 22.2875 3.56249 23.072 4.35237 23.6316V24.4645ZM8.23887 26.3451C7.66022 26.9083 6.75374 26.9082 6.17527 26.3451L5.54432 25.7309C5.65079 25.5266 5.70932 25.295 5.70932 25.0523V24.3117C6.18259 24.4632 6.68572 24.5449 7.20712 24.5449C7.72788 24.5449 8.23073 24.4628 8.70482 24.3121L8.70473 25.0523C8.70473 25.295 8.76317 25.5267 8.86973 25.7311L8.23887 26.3451ZM7.2073 23.1551C5.18141 23.1551 3.53336 21.4669 3.53336 19.3919C3.53336 19.0081 3.22961 18.697 2.85493 18.697C2.81694 18.697 2.77985 18.701 2.74358 18.7072C2.74557 18.6474 2.74747 18.5876 2.74946 18.5284C2.76456 18.0506 2.77913 17.5992 2.80599 17.2121C2.89265 15.9635 3.37977 14.8129 4.1776 13.9722C4.98258 13.1238 6.05849 12.6567 7.20712 12.6567C8.35575 12.6567 9.43156 13.1238 10.2366 13.9722C11.0345 14.8129 11.5216 15.9635 11.6082 17.2121C11.635 17.5991 11.6497 18.0504 11.665 18.5281C11.6664 18.5691 11.6678 18.6107 11.6691 18.6521C10.931 17.4872 9.79104 16.6288 8.31812 16.144C6.95736 15.6962 5.78702 15.7239 5.73763 15.7252C5.55997 15.7303 5.39136 15.8065 5.26807 15.9375L4.044 17.2378C3.78393 17.5141 3.79171 17.954 4.06145 18.2204C4.3312 18.4868 4.76069 18.4787 5.02076 18.2025L6.03931 17.1206C6.91648 17.1645 9.73848 17.5007 10.836 19.9761C10.5598 21.8003 9.02911 23.1551 7.2073 23.1551ZM10.0615 24.4668L10.0616 23.638C10.8508 23.0814 11.4783 22.2985 11.8527 21.3727C11.9341 21.971 12.0541 22.5379 12.239 23.0329C11.9688 23.3701 11.3293 23.9992 10.0615 24.4668ZM16.5902 13.1932V11.469C16.5902 11.3644 16.5671 11.2611 16.5227 11.1669C16.0862 10.2409 15.8648 9.2584 15.8648 8.24662V6.76063C15.8648 3.8662 18.1638 1.51149 20.9895 1.51149H30.4666V8.24671C30.4666 9.2585 30.2453 10.241 29.8088 11.167C29.7643 11.2612 29.7413 11.3645 29.7413 11.4691V13.4478C29.7413 15.3297 29.0027 17.0752 27.6616 18.3628C27.4941 18.5235 27.3204 18.6741 27.1407 18.8145C27.1367 18.8173 27.1329 18.8203 27.129 18.8232C25.8727 19.8002 24.3338 20.2751 22.7267 20.1684C19.2856 19.9402 16.5902 16.8763 16.5902 13.1932ZM20.4101 27.1757C20.4054 27.1805 20.3945 27.1919 20.3723 27.1895C20.3502 27.1873 20.3416 27.174 20.3378 27.1683L18.2279 23.9265L18.9069 23.1957L22.1077 25.4368L20.4101 27.1757ZM23.1657 24.494L19.4918 21.9217V20.6246C20.4424 21.151 21.5068 21.4802 22.6389 21.5552C22.8177 21.5671 22.9955 21.5729 23.1727 21.5729C24.4699 21.5729 25.7184 21.2553 26.8397 20.6524V21.9217L23.1657 24.494ZM25.9936 27.1685C25.9899 27.1742 25.9812 27.1875 25.9592 27.1897C25.937 27.1926 25.9261 27.1806 25.9213 27.1759L24.2237 25.437L27.4246 23.1959L28.1036 23.9267L25.9936 27.1685ZM38.3819 26.5822L36.8423 25.0053C36.8691 24.8803 36.8843 24.7434 36.8843 24.5925L36.8842 24.2992C37.3114 24.4429 37.7617 24.5281 38.2276 24.5424C38.2799 24.544 38.3318 24.5448 38.3839 24.5448C38.8987 24.5448 39.4013 24.4651 39.8797 24.3131V24.5929C39.8797 24.7315 39.8967 24.8673 39.9287 24.9979L38.3819 26.5822ZM40.9403 22.0927C40.2212 22.8074 39.2713 23.1849 38.2684 23.1532C36.3051 23.0929 34.7079 21.3216 34.7079 19.2049V17.9058C34.7079 17.7979 34.6834 17.6915 34.6363 17.5951L34.2172 16.7365C34.0637 16.422 33.9826 16.0699 33.9826 15.7182V15.6768C33.9826 14.0114 35.3053 12.6566 36.9311 12.6566H42.7813V15.5428C42.7813 16.0092 42.6736 16.4763 42.47 16.8935L42.1275 17.5951C42.0804 17.6916 42.0559 17.7979 42.0559 17.9058V19.3918C42.0559 20.4184 41.6597 21.3776 40.9403 22.0927Z" fill="#F68633"/>
<path d="M42.7331 29.0979C42.3584 29.0979 42.0547 29.409 42.0547 29.7928V34.2509C42.0547 34.6347 42.3584 34.9458 42.7331 34.9458C43.1078 34.9458 43.4115 34.6347 43.4115 34.2509V29.7928C43.4115 29.4091 43.1078 29.0979 42.7331 29.0979Z" fill="#F68633"/>
<path d="M3.58078 30.0166C3.2061 30.0166 2.90234 30.3277 2.90234 30.7115V34.251C2.90234 34.6348 3.2061 34.9459 3.58078 34.9459C3.95546 34.9459 4.25922 34.6348 4.25922 34.251V30.7115C4.25922 30.3278 3.95546 30.0166 3.58078 30.0166Z" fill="#F68633"/>
<path d="M28.7219 8.49771C26.156 5.86949 20.7874 6.37195 18.5982 6.70995C17.9086 6.81641 17.4082 7.41412 17.4082 8.13117V9.73204C17.4082 10.1158 17.712 10.4269 18.0866 10.4269C18.4613 10.4269 18.7651 10.1158 18.7651 9.73204V8.13107C18.7651 8.10745 18.7803 8.08725 18.8005 8.0841C19.675 7.9491 21.4102 7.74082 23.2081 7.86358C25.3237 8.00784 26.856 8.55181 27.7625 9.48039C28.0275 9.75177 28.4571 9.75177 28.7219 9.48039C28.9869 9.20901 28.9869 8.769 28.7219 8.49771Z" fill="#F68633"/>
<path d="M15.1862 30.5845C14.8116 30.5845 14.5078 30.8956 14.5078 31.2794V34.2514C14.5078 34.6352 14.8116 34.9463 15.1862 34.9463C15.5609 34.9463 15.8647 34.6352 15.8647 34.2514V31.2794C15.8647 30.8957 15.5609 30.5845 15.1862 30.5845Z" fill="#F68633"/>
<path d="M31.1452 30.5845C30.7706 30.5845 30.4668 30.8956 30.4668 31.2794V34.2514C30.4668 34.6352 30.7706 34.9463 31.1452 34.9463C31.5199 34.9463 31.8237 34.6352 31.8237 34.2514V31.2794C31.8237 30.8957 31.5199 30.5845 31.1452 30.5845Z" fill="#F68633"/>
</svg>
