<svg width="107" height="37" viewBox="0 0 107 37" fill="none" xmlns="http://www.w3.org/2000/svg">
<path d="M2.64452 0V4.62323H7.45745V0H10.0766V12.034H7.45745V6.84419H2.64452V12.034H0.0253906V0H2.64452Z" fill="#F68633"/>
<path d="M18.9632 0L23.4179 12.034H20.7092L19.8138 9.35977H15.3591L14.4189 12.034H11.7773L16.2769 0H18.9632ZM19.1198 7.3881L17.62 2.96884H17.5752L16.0306 7.3881H19.1198Z" fill="#F68633"/>
<path d="M30.4702 0C31.2089 0 31.8581 0.113314 32.373 0.339943C32.8879 0.566572 33.3132 0.838527 33.649 1.20113C33.9848 1.56374 34.2086 1.97167 34.3653 2.42493C34.522 2.87819 34.5892 3.35411 34.5892 3.85269C34.5892 4.32861 34.522 4.80453 34.3653 5.28045C34.2086 5.75637 33.9848 6.16431 33.649 6.52691C33.3132 6.88952 32.8879 7.18414 32.373 7.3881C31.8581 7.61473 31.2089 7.72804 30.4702 7.72804H27.7168V12.0567H25.0977V0H30.4702ZM29.7539 5.66572C30.0449 5.66572 30.3359 5.64306 30.6269 5.59773C30.8955 5.55241 31.1418 5.46176 31.3656 5.32578C31.5671 5.1898 31.7462 5.0085 31.8805 4.78187C32.0148 4.55524 32.082 4.23796 32.082 3.85269C32.082 3.46742 32.0148 3.1728 31.8805 2.92351C31.7462 2.69688 31.5895 2.49292 31.3656 2.3796C31.1642 2.24363 30.9179 2.17564 30.6269 2.10765C30.3583 2.06232 30.0673 2.03966 29.7539 2.03966H27.7168V5.64306H29.7539V5.66572Z" fill="#F68633"/>
<path d="M42.2671 0C43.0058 0 43.655 0.113314 44.1699 0.339943C44.6848 0.566572 45.1101 0.838527 45.4459 1.20113C45.7817 1.56374 46.0055 1.97167 46.1622 2.42493C46.3189 2.87819 46.3861 3.35411 46.3861 3.85269C46.3861 4.32861 46.3189 4.80453 46.1622 5.28045C46.0055 5.75637 45.7817 6.16431 45.4459 6.52691C45.1101 6.88952 44.7072 7.18414 44.1699 7.3881C43.655 7.61473 43.0058 7.72805 42.2671 7.72805H39.5137V12.034H36.8945V0H42.2671ZM41.5508 5.66572C41.8418 5.66572 42.1328 5.64306 42.4238 5.59773C42.6924 5.55241 42.9387 5.46176 43.1625 5.32578C43.364 5.1898 43.5431 5.0085 43.6774 4.78187C43.8117 4.55524 43.8789 4.23796 43.8789 3.85269C43.8789 3.46742 43.8117 3.15014 43.6774 2.92351C43.5431 2.69688 43.3864 2.49292 43.1625 2.3796C42.9611 2.24363 42.7148 2.17564 42.4238 2.10765C42.1552 2.06232 41.8642 2.03966 41.5508 2.03966H39.5137V5.64306H41.5508V5.66572Z" fill="#F68633"/>
<path d="M47.3945 0H50.3271L53.1029 4.75921L55.8787 0H58.7888L54.3789 7.41076V12.034H51.7597V7.34278L47.3945 0Z" fill="#F68633"/>
<path d="M63.0644 0V9.81303H68.8623V12.034H60.4453V0H63.0644Z" fill="#F68633"/>
<path d="M79.8978 0V2.22096H73.6074V4.80453H79.3829V6.86686H73.6074V9.81303H80.0321V12.034H70.9883V0H79.8978Z" fill="#F68633"/>
<path d="M85.0459 0L90.0156 8.06799H90.0603V0H92.5004V12.034H89.8813L84.934 3.96601H84.9116V12.034H82.4492V0H85.0459Z" fill="#F68633"/>
<path d="M100.606 0C101.367 0 102.083 0.113315 102.755 0.362606C103.427 0.611898 103.986 0.974504 104.479 1.47309C104.971 1.97167 105.329 2.58357 105.62 3.33144C105.889 4.07932 106.023 4.94051 106.023 5.93768C106.023 6.82153 105.911 7.61473 105.687 8.36261C105.464 9.11048 105.128 9.74504 104.68 10.2889C104.232 10.8329 103.673 11.2635 103.001 11.5581C102.33 11.8754 101.546 12.0113 100.628 12.0113H95.502V0H100.606ZM100.427 9.81303C100.807 9.81303 101.166 9.74504 101.524 9.63173C101.882 9.51841 102.195 9.31444 102.464 9.01983C102.733 8.72521 102.956 8.36261 103.135 7.88668C103.292 7.43343 103.382 6.86685 103.382 6.20963C103.382 5.59773 103.315 5.05382 103.203 4.55524C103.091 4.05666 102.889 3.64872 102.621 3.30878C102.352 2.96884 101.994 2.69688 101.568 2.51558C101.143 2.33428 100.584 2.24363 99.9343 2.24363H98.0763V9.83569H100.427V9.81303Z" fill="#F68633"/>
<path d="M9.94583 28.4907C9.81975 29.8043 9.3269 30.8303 8.46728 31.5689C7.60766 32.3018 6.46436 32.6683 5.03739 32.6683C4.04022 32.6683 3.16054 32.4371 2.39835 31.9748C1.64188 31.5069 1.05734 30.8444 0.644717 29.9875C0.232098 29.1306 0.0171924 28.1355 0 27.0023V25.8522C0 24.6908 0.209175 23.6675 0.627524 22.7824C1.04587 21.8973 1.64474 21.2151 2.42413 20.7359C3.20926 20.2567 4.11472 20.0171 5.14054 20.0171C6.52167 20.0171 7.63344 20.3864 8.47587 21.1249C9.3183 21.8635 9.80829 22.9064 9.94583 24.2539H7.77958C7.67643 23.3687 7.41281 22.7317 6.98873 22.3427C6.57038 21.948 5.95432 21.7507 5.14054 21.7507C4.19496 21.7507 3.46714 22.0918 2.9571 22.774C2.45279 23.4505 2.1949 24.4456 2.18344 25.7592V26.8501C2.18344 28.1806 2.42413 29.1954 2.90552 29.8945C3.39264 30.5936 4.10326 30.9431 5.03739 30.9431C5.89128 30.9431 6.53313 30.7542 6.96294 30.3765C7.39275 29.9988 7.66496 29.3702 7.77958 28.4907H9.94583Z" fill="#F68633"/>
<path d="M19.0148 24.9811H15.9976V32.4991H13.9087V24.9811H10.9258V23.349H19.0148V24.9811Z" fill="#F68633"/>
<path d="M28.5566 28.0171C28.5566 29.4322 28.23 30.5625 27.5767 31.4082C26.9234 32.2482 26.0466 32.6683 24.9462 32.6683C23.9261 32.6683 23.1095 32.3384 22.4963 31.6788V36.0171H20.4074V23.349H22.333L22.4189 24.2792C23.0321 23.5463 23.866 23.1799 24.9204 23.1799C26.0551 23.1799 26.9434 23.5971 27.5853 24.4315C28.2329 25.2602 28.5566 26.4131 28.5566 27.8902V28.0171ZM26.4764 27.8395C26.4764 26.9262 26.2901 26.2017 25.9176 25.6661C25.5508 25.1306 25.0236 24.8628 24.3359 24.8628C23.482 24.8628 22.8688 25.2095 22.4963 25.9029V29.9621C22.8745 30.6725 23.4935 31.0277 24.3531 31.0277C25.0179 31.0277 25.5365 30.7655 25.909 30.2412C26.2872 29.7112 26.4764 28.9107 26.4764 27.8395Z" fill="#F68633"/>
<path d="M35.8892 32.4991C35.7975 32.3243 35.7173 32.0396 35.6485 31.645C34.9838 32.3272 34.17 32.6683 33.2072 32.6683C32.2731 32.6683 31.5109 32.4061 30.9206 31.8818C30.3303 31.3575 30.0352 30.7091 30.0352 29.9368C30.0352 28.9614 30.402 28.2144 31.1355 27.6957C31.8748 27.1714 32.9293 26.9093 34.2989 26.9093H35.5798V26.3088C35.5798 25.8353 35.4451 25.4575 35.1757 25.1757C34.9064 24.8881 34.4966 24.7444 33.9465 24.7444C33.4708 24.7444 33.0811 24.8628 32.7774 25.0995C32.4737 25.3307 32.3218 25.6267 32.3218 25.9875H30.2329C30.2329 25.4857 30.402 25.0178 30.7401 24.5837C31.0782 24.1439 31.5367 23.8 32.1155 23.552C32.7 23.3039 33.3505 23.1799 34.0668 23.1799C35.1557 23.1799 36.0239 23.4505 36.6715 23.9917C37.3191 24.5273 37.6515 25.2828 37.6686 26.2581V30.385C37.6686 31.2081 37.7861 31.8649 38.0211 32.3554V32.4991H35.8892ZM33.594 31.0192C34.0067 31.0192 34.3935 30.9205 34.7545 30.7232C35.1213 30.5259 35.3964 30.2609 35.5798 29.9283V28.2031H34.4537C33.68 28.2031 33.0983 28.3356 32.7086 28.6006C32.3189 28.8656 32.1241 29.2405 32.1241 29.7253C32.1241 30.12 32.2559 30.4357 32.5195 30.6725C32.7889 30.9036 33.147 31.0192 33.594 31.0192Z" fill="#F68633"/>
<path d="M43.196 26.3596L44.9668 23.349H47.2878L44.4425 27.8564L47.3824 32.4991H45.0786L43.2218 29.3702L41.3736 32.4991H39.0526L41.9925 27.8564L39.1558 23.349H41.4596L43.196 26.3596Z" fill="#F68633"/>
<path d="M47.9755 27.8395C47.9755 26.9431 48.156 26.1369 48.5171 25.4209C48.8781 24.6993 49.3853 24.1468 50.0386 23.7634C50.6919 23.3744 51.4427 23.1799 52.2908 23.1799C53.5459 23.1799 54.5631 23.5773 55.3425 24.3723C56.1276 25.1672 56.5517 26.2215 56.6147 27.5351L56.6233 28.0171C56.6233 28.9191 56.4457 29.7253 56.0903 30.4357C55.7408 31.1461 55.2365 31.6957 54.5774 32.0847C53.9241 32.4738 53.1676 32.6683 52.308 32.6683C50.9957 32.6683 49.944 32.2398 49.1532 31.3828C48.3681 30.5203 47.9755 29.373 47.9755 27.941V27.8395ZM50.0644 28.0171C50.0644 28.9586 50.2621 29.6971 50.6575 30.2327C51.053 30.7627 51.6031 31.0277 52.308 31.0277C53.0129 31.0277 53.5602 30.757 53.9499 30.2158C54.3453 29.6746 54.543 28.8825 54.543 27.8395C54.543 26.9149 54.3396 26.182 53.9327 25.6408C53.5315 25.0995 52.9842 24.8289 52.2908 24.8289C51.6088 24.8289 51.0673 25.0967 50.6661 25.6323C50.265 26.1623 50.0644 26.9572 50.0644 28.0171Z" fill="#F68633"/>
<path d="M58.5489 32.4991V23.349H62.3226C63.5948 23.349 64.5634 23.5689 65.2281 24.0086C65.8929 24.4427 66.2253 25.0685 66.2253 25.886C66.2253 26.3088 66.0906 26.6894 65.8213 27.0277C65.5576 27.3603 65.1651 27.6168 64.6436 27.7972C65.2511 27.9212 65.7324 28.1721 66.0878 28.5499C66.4431 28.9276 66.6207 29.373 66.6207 29.886C66.6207 30.7373 66.2998 31.3857 65.6579 31.831C65.0218 32.2764 64.1049 32.4991 62.9071 32.4991H58.5489ZM60.6377 28.6006V30.8754H62.9243C63.996 30.8754 64.5318 30.4977 64.5318 29.7422C64.5318 28.9811 63.9874 28.6006 62.8986 28.6006H60.6377ZM60.6377 27.1291H62.357C63.5433 27.1291 64.1364 26.7852 64.1364 26.0974C64.1364 25.3758 63.5748 25.0037 62.4515 24.9811H60.6377V27.1291Z" fill="#F68633"/>
<path d="M73.9877 32.4991C73.896 32.3243 73.8158 32.0396 73.747 31.645C73.0822 32.3272 72.2684 32.6683 71.3057 32.6683C70.3715 32.6683 69.6093 32.4061 69.0191 31.8818C68.4288 31.3575 68.1337 30.7091 68.1337 29.9368C68.1337 28.9614 68.5004 28.2144 69.234 27.6957C69.9732 27.1714 71.0277 26.9093 72.3974 26.9093H73.6782V26.3088C73.6782 25.8353 73.5435 25.4575 73.2742 25.1757C73.0048 24.8881 72.5951 24.7444 72.0449 24.7444C71.5693 24.7444 71.1796 24.8628 70.8758 25.0995C70.5721 25.3307 70.4202 25.6267 70.4202 25.9875H68.3314C68.3314 25.4857 68.5004 25.0178 68.8385 24.5837C69.1767 24.1439 69.6351 23.8 70.2139 23.552C70.7985 23.3039 71.4489 23.1799 72.1653 23.1799C73.2541 23.1799 74.1224 23.4505 74.7699 23.9917C75.4175 24.5273 75.7499 25.2828 75.7671 26.2581V30.385C75.7671 31.2081 75.8846 31.8649 76.1195 32.3554V32.4991H73.9877ZM71.6925 31.0192C72.1051 31.0192 72.4919 30.9205 72.853 30.7232C73.2197 30.5259 73.4948 30.2609 73.6782 29.9283V28.2031H72.5521C71.7785 28.2031 71.1968 28.3356 70.8071 28.6006C70.4174 28.8656 70.2225 29.2405 70.2225 29.7253C70.2225 30.12 70.3543 30.4357 70.618 30.6725C70.8873 30.9036 71.2455 31.0192 71.6925 31.0192Z" fill="#F68633"/>
<path d="M85.8333 32.4991H83.7444V28.8036H80.1254V32.4991H78.0365V23.349H80.1254V27.163H83.7444V23.349H85.8333V32.4991Z" fill="#F68633"/>
<path d="M93.8707 23.349H95.951V32.4991H93.8707V26.3934L90.2259 32.4991H88.1457V23.349H90.2259V29.4547L93.8707 23.349Z" fill="#F68633"/>
<path d="M102.269 32.6683C100.945 32.6683 99.8709 32.2595 99.0457 31.442C98.2262 30.6189 97.8164 29.5252 97.8164 28.1609V27.9072C97.8164 26.9938 97.9941 26.1792 98.3494 25.4632C98.7104 24.7415 99.2147 24.1806 99.8623 23.7803C100.51 23.38 101.232 23.1799 102.029 23.1799C103.295 23.1799 104.272 23.5773 104.96 24.3723C105.653 25.1672 106 26.2919 106 27.7465V28.5752H99.9225C99.9855 29.3307 100.241 29.9283 100.688 30.368C101.14 30.8078 101.708 31.0277 102.39 31.0277C103.347 31.0277 104.126 30.6471 104.728 29.886L105.854 30.9431C105.481 31.49 104.983 31.9156 104.358 32.22C103.739 32.5189 103.043 32.6683 102.269 32.6683ZM102.02 24.8289C101.447 24.8289 100.983 25.0263 100.627 25.4209C100.278 25.8155 100.054 26.3652 99.9569 27.0699H103.937V26.9177C103.891 26.2299 103.705 25.7112 103.378 25.3617C103.051 25.0065 102.599 24.8289 102.02 24.8289Z" fill="#F68633"/>
</svg>
