<svg width="142" height="49" viewBox="0 0 142 49" fill="none" xmlns="http://www.w3.org/2000/svg">
<path d="M3.54169 0V6.19203H9.98778V0H13.4957V16.1175H9.98778V9.16663H3.54169V16.1175H0.0338135V0H3.54169Z" fill="white"/>
<path d="M25.3981 0L31.3645 16.1175H27.7367L26.5374 12.5358H20.571L19.3118 16.1175H15.7739L21.8003 0H25.3981ZM25.608 9.8951L23.5992 3.97625H23.5392L21.4705 9.8951H25.608Z" fill="white"/>
<path d="M40.8099 0C41.7993 0 42.6688 0.151765 43.3583 0.455296C44.0479 0.758827 44.6176 1.12306 45.0673 1.60871C45.517 2.09436 45.8168 2.64072 46.0267 3.24778C46.2366 3.85484 46.3265 4.49225 46.3265 5.16002C46.3265 5.79744 46.2366 6.43485 46.0267 7.07226C45.8168 7.70968 45.517 8.25603 45.0673 8.74168C44.6176 9.22733 44.0479 9.62192 43.3583 9.8951C42.6688 10.1986 41.7993 10.3504 40.8099 10.3504H37.1221V16.1478H33.6143V0H40.8099ZM39.8505 7.58827C40.2402 7.58827 40.63 7.55791 41.0198 7.49721C41.3795 7.4365 41.7093 7.31509 42.0092 7.13297C42.279 6.95085 42.5188 6.70803 42.6987 6.4045C42.8786 6.10097 42.9686 5.67602 42.9686 5.16002C42.9686 4.64402 42.8786 4.24943 42.6987 3.91554C42.5188 3.61201 42.309 3.33884 42.0092 3.18707C41.7393 3.00495 41.4095 2.91389 41.0198 2.82284C40.66 2.76213 40.2702 2.73178 39.8505 2.73178H37.1221V7.55791H39.8505V7.58827Z" fill="white"/>
<path d="M56.6097 0C57.5991 0 58.4686 0.151765 59.1582 0.455296C59.8478 0.758827 60.4174 1.12306 60.8671 1.60871C61.3169 2.09436 61.6167 2.64072 61.8266 3.24778C62.0364 3.85484 62.1264 4.49225 62.1264 5.16002C62.1264 5.79744 62.0364 6.43485 61.8266 7.07227C61.6167 7.70968 61.3169 8.25603 60.8671 8.74168C60.4174 9.22733 59.8777 9.62192 59.1582 9.8951C58.4686 10.1986 57.5991 10.3504 56.6097 10.3504H52.9219V16.1175H49.4141V0H56.6097ZM55.6503 7.58827C56.0401 7.58827 56.4298 7.55791 56.8196 7.49721C57.1794 7.4365 57.5092 7.31509 57.809 7.13297C58.0788 6.95085 58.3187 6.70803 58.4986 6.4045C58.6785 6.10097 58.7684 5.67602 58.7684 5.16002C58.7684 4.64402 58.6785 4.21908 58.4986 3.91555C58.3187 3.61202 58.1088 3.33884 57.809 3.18707C57.5392 3.00495 57.2093 2.91389 56.8196 2.82284C56.4598 2.76213 56.07 2.73178 55.6503 2.73178H52.9219V7.55791H55.6503V7.58827Z" fill="white"/>
<path d="M63.4771 0H67.4047L71.1224 6.37415L74.8401 0H78.7378L72.8314 9.92545V16.1175H69.3235V9.83439L63.4771 0Z" fill="white"/>
<path d="M84.4642 0V13.1429H92.2295V16.1175H80.9563V0H84.4642Z" fill="white"/>
<path d="M107.009 0V2.9746H98.5845V6.43485H106.32V9.19698H98.5845V13.1429H107.189V16.1175H95.0767V0H107.009Z" fill="white"/>
<path d="M113.905 0L120.561 10.8057H120.621V0H123.889V16.1175H120.381L113.755 5.31179H113.725V16.1175H110.427V0H113.905Z" fill="white"/>
<path d="M134.745 0C135.764 0 136.723 0.151765 137.623 0.485649C138.522 0.819533 139.272 1.30518 139.931 1.97295C140.591 2.64072 141.071 3.46025 141.46 4.4619C141.82 5.46355 142 6.61697 142 7.9525C142 9.13627 141.85 10.1986 141.55 11.2003C141.251 12.2019 140.801 13.0518 140.201 13.7803C139.602 14.5088 138.852 15.0855 137.953 15.4801C137.053 15.905 136.004 16.0871 134.775 16.0871H127.909V0H134.745ZM134.505 13.1429C135.014 13.1429 135.494 13.0518 135.974 12.9001C136.454 12.7483 136.873 12.4751 137.233 12.0805C137.593 11.6859 137.893 11.2003 138.132 10.5629C138.342 9.9558 138.462 9.19698 138.462 8.31674C138.462 7.49721 138.372 6.76873 138.222 6.10097C138.073 5.4332 137.803 4.88684 137.443 4.43155C137.083 3.97625 136.603 3.61201 136.034 3.36919C135.464 3.12637 134.715 3.00495 133.845 3.00495H131.357V13.1732H134.505V13.1429Z" fill="white"/>
<path d="M13.3207 38.1585C13.1519 39.9178 12.4918 41.2921 11.3405 42.2812C10.1892 43.2628 8.6579 43.7536 6.74672 43.7536C5.41119 43.7536 4.23301 43.4441 3.21217 42.8249C2.19901 42.1982 1.41612 41.3109 0.863488 40.1632C0.310856 39.0155 0.0230263 37.6828 0 36.1651V34.6247C0 33.0692 0.280154 31.6987 0.840461 30.5133C1.40077 29.3278 2.20285 28.4141 3.24671 27.7723C4.29825 27.1305 5.51097 26.8096 6.88487 26.8096C8.73466 26.8096 10.2237 27.3041 11.352 28.2933C12.4803 29.2825 13.1365 30.6794 13.3207 32.484H10.4194C10.2813 31.2985 9.92819 30.4453 9.3602 29.9243C8.7999 29.3957 7.97479 29.1315 6.88487 29.1315C5.61843 29.1315 4.64364 29.5883 3.96053 30.5019C3.28509 31.408 2.9397 32.7407 2.92434 34.5001V35.9612C2.92434 37.7432 3.24671 39.1023 3.89145 40.0386C4.54386 40.9749 5.49562 41.4431 6.74672 41.4431C7.89036 41.4431 8.75001 41.1901 9.32567 40.6842C9.90132 40.1783 10.2659 39.3364 10.4194 38.1585H13.3207Z" fill="white"/>
<path d="M25.4671 33.4581H21.426V43.5271H18.6283V33.4581H14.6332V31.2721H25.4671V33.4581Z" fill="white"/>
<path d="M38.2467 37.5242C38.2467 39.4195 37.8092 40.9334 36.9342 42.066C36.0592 43.1911 34.8849 43.7536 33.4112 43.7536C32.045 43.7536 30.9512 43.3119 30.13 42.4285V48.2388H27.3323V31.2721H29.9112L30.0263 32.518C30.8476 31.5364 31.9644 31.0456 33.3767 31.0456C34.8964 31.0456 36.0861 31.6043 36.9458 32.7219C37.8131 33.8318 38.2467 35.376 38.2467 37.3543V37.5242ZM35.4606 37.2864C35.4606 36.0631 35.2111 35.0928 34.7122 34.3755C34.221 33.6582 33.5148 33.2995 32.5938 33.2995C31.4501 33.2995 30.6289 33.7639 30.13 34.6926V40.1292C30.6365 41.0806 31.4655 41.5563 32.6168 41.5563C33.5072 41.5563 34.2018 41.2052 34.7007 40.503C35.2073 39.7932 35.4606 38.721 35.4606 37.2864Z" fill="white"/>
<path d="M48.0675 43.5271C47.9447 43.293 47.8372 42.9117 47.7451 42.3832C46.8548 43.2968 45.7648 43.7536 44.4754 43.7536C43.2243 43.7536 42.2034 43.4025 41.4129 42.7003C40.6223 41.9981 40.227 41.1297 40.227 40.0953C40.227 38.789 40.7182 37.7885 41.7007 37.0938C42.6908 36.3916 44.1031 36.0405 45.9375 36.0405H47.653V35.2363C47.653 34.602 47.4726 34.0961 47.1119 33.7186C46.7511 33.3335 46.2023 33.1409 45.4655 33.1409C44.8284 33.1409 44.3065 33.2995 43.8997 33.6166C43.4929 33.9262 43.2895 34.3226 43.2895 34.8059H40.4918C40.4918 34.1339 40.7182 33.5072 41.1711 32.9257C41.6239 32.3368 42.238 31.8762 43.0132 31.5439C43.7961 31.2117 44.6673 31.0456 45.6267 31.0456C47.085 31.0456 48.2478 31.408 49.1152 32.1329C49.9825 32.8502 50.4277 33.862 50.4507 35.1683V40.6956C50.4507 41.798 50.608 42.6776 50.9227 43.3346V43.5271H48.0675ZM44.9935 41.545C45.5461 41.545 46.0642 41.4129 46.5477 41.1486C47.039 40.8843 47.4074 40.5294 47.653 40.0839V37.7734H46.1448C45.1086 37.7734 44.3295 37.9508 43.8076 38.3057C43.2857 38.6606 43.0247 39.1627 43.0247 39.8121C43.0247 40.3407 43.2012 40.7635 43.5543 41.0806C43.9151 41.3902 44.3948 41.545 44.9935 41.545Z" fill="white"/>
<path d="M57.8537 35.3043L60.2254 31.2721H63.3339L59.5231 37.309L63.4606 43.5271H60.375L57.8882 39.3364L55.4129 43.5271H52.3043L56.2418 37.309L52.4425 31.2721H55.528L57.8537 35.3043Z" fill="white"/>
<path d="M64.255 37.2864C64.255 36.0858 64.4968 35.006 64.9803 34.047C65.4639 33.0805 66.1432 32.3406 67.0182 31.8271C67.8932 31.3061 68.8986 31.0456 70.0346 31.0456C71.7155 31.0456 73.0779 31.5779 74.1218 32.6426C75.1733 33.7073 75.7413 35.1193 75.8257 36.8786L75.8372 37.5242C75.8372 38.7323 75.5993 39.8121 75.1234 40.7635C74.6552 41.7149 73.9798 42.4511 73.0971 42.9721C72.2221 43.4931 71.2089 43.7536 70.0576 43.7536C68.2999 43.7536 66.8915 43.1798 65.8323 42.032C64.7808 40.8768 64.255 39.3402 64.255 37.4223V37.2864ZM67.0527 37.5242C67.0527 38.7852 67.3175 39.7744 67.8471 40.4917C68.3767 41.2015 69.1135 41.5563 70.0576 41.5563C71.0017 41.5563 71.7347 41.1939 72.2566 40.469C72.7862 39.7441 73.051 38.6833 73.051 37.2864C73.051 36.048 72.7786 35.0664 72.2336 34.3415C71.6963 33.6166 70.9633 33.2542 70.0346 33.2542C69.1212 33.2542 68.3959 33.6129 67.8586 34.3302C67.3213 35.04 67.0527 36.1046 67.0527 37.5242Z" fill="white"/>
<path d="M78.4162 43.5271V31.2721H83.4705C85.1744 31.2721 86.4716 31.5666 87.3619 32.1556C88.2523 32.737 88.6974 33.5751 88.6974 34.67C88.6974 35.2363 88.5171 35.746 88.1563 36.199C87.8033 36.6445 87.2775 36.9881 86.579 37.2297C87.3926 37.3958 88.0374 37.7318 88.5132 38.2378C88.9891 38.7437 89.2271 39.3402 89.2271 40.0273C89.2271 41.1675 88.7972 42.0358 87.9376 42.6323C87.0856 43.2289 85.8575 43.5271 84.2534 43.5271H78.4162ZM81.2139 38.3057V41.3525H84.2764C85.7117 41.3525 86.4294 40.8466 86.4294 39.8348C86.4294 38.8154 85.7002 38.3057 84.2418 38.3057H81.2139ZM81.2139 36.3349H83.5165C85.1053 36.3349 85.8997 35.8743 85.8997 34.9531C85.8997 33.9866 85.1476 33.4883 83.6432 33.4581H81.2139V36.3349Z" fill="white"/>
<path d="M99.0938 43.5271C98.971 43.293 98.8636 42.9117 98.7715 42.3832C97.8811 43.2968 96.7912 43.7536 95.5017 43.7536C94.2506 43.7536 93.2298 43.4025 92.4392 42.7003C91.6487 41.9981 91.2534 41.1297 91.2534 40.0953C91.2534 38.789 91.7446 37.7885 92.7271 37.0938C93.7172 36.3916 95.1295 36.0405 96.9639 36.0405H98.6794V35.2363C98.6794 34.602 98.499 34.0961 98.1382 33.7186C97.7775 33.3335 97.2287 33.1409 96.4919 33.1409C95.8548 33.1409 95.3329 33.2995 94.9261 33.6166C94.5193 33.9262 94.3159 34.3226 94.3159 34.8059H91.5182C91.5182 34.1339 91.7446 33.5072 92.1974 32.9257C92.6503 32.3368 93.2643 31.8762 94.0396 31.5439C94.8224 31.2117 95.6936 31.0456 96.653 31.0456C98.1114 31.0456 99.2742 31.408 100.142 32.1329C101.009 32.8502 101.454 33.862 101.477 35.1683V40.6956C101.477 41.798 101.634 42.6776 101.949 43.3346V43.5271H99.0938ZM96.0198 41.545C96.5724 41.545 97.0905 41.4129 97.5741 41.1486C98.0653 40.8843 98.4337 40.5294 98.6794 40.0839V37.7734H97.1711C96.1349 37.7734 95.3559 37.9508 94.834 38.3057C94.312 38.6606 94.0511 39.1627 94.0511 39.8121C94.0511 40.3407 94.2276 40.7635 94.5807 41.0806C94.9414 41.3902 95.4211 41.545 96.0198 41.545Z" fill="white"/>
<path d="M114.959 43.5271H112.161V38.5775H107.314V43.5271H104.517V31.2721H107.314V36.3803H112.161V31.2721H114.959V43.5271Z" fill="white"/>
<path d="M125.724 31.2721H128.51V43.5271H125.724V35.3496L120.842 43.5271H118.056V31.2721H120.842V39.4497L125.724 31.2721Z" fill="white"/>
<path d="M136.972 43.7536C135.199 43.7536 133.76 43.2062 132.655 42.1113C131.557 41.0089 131.008 39.5441 131.008 37.7167V37.377C131.008 36.1537 131.246 35.0626 131.722 34.1037C132.206 33.1372 132.881 32.3859 133.748 31.8498C134.616 31.3136 135.583 31.0456 136.65 31.0456C138.346 31.0456 139.655 31.5779 140.576 32.6426C141.505 33.7073 141.969 35.2136 141.969 37.1618V38.2717H133.829C133.913 39.2835 134.255 40.0839 134.854 40.6729C135.46 41.2619 136.22 41.5563 137.133 41.5563C138.415 41.5563 139.459 41.0467 140.265 40.0273L141.773 41.4431C141.274 42.1755 140.606 42.7456 139.77 43.1533C138.941 43.5535 138.008 43.7536 136.972 43.7536ZM136.638 33.2542C135.871 33.2542 135.249 33.5185 134.773 34.047C134.305 34.5756 134.006 35.3118 133.875 36.2557H139.206V36.0518C139.144 35.1306 138.895 34.4359 138.457 33.9678C138.02 33.4921 137.413 33.2542 136.638 33.2542Z" fill="white"/>
</svg>
